<svg width="32" height="32" viewBox="0 0 32 32" fill="none" xmlns="http://www.w3.org/2000/svg">
<path d="M12.6505 15.3495C12.9025 15.0975 12.724 14.6667 12.3676 14.6667H9.46799C9.46799 14.6627 9.46799 14.6587 9.46932 14.6547C9.55599 14.2293 9.68665 13.8093 9.85732 13.4053C10.0253 13.0093 10.232 12.628 10.472 12.272C10.7093 11.92 10.984 11.588 11.2853 11.2853C11.588 10.984 11.92 10.7093 12.2747 10.4707C12.6293 10.2307 13.0093 10.0253 13.4053 9.85733C13.808 9.68666 14.228 9.55599 14.656 9.46933C15.5333 9.28933 16.4653 9.28933 17.3467 9.46933C17.7707 9.55599 18.192 9.68666 18.596 9.85733C18.9907 10.024 19.3707 10.232 19.7293 10.472C19.8984 10.5858 20.062 10.7074 20.2192 10.836C20.5044 11.0693 20.9249 11.073 21.1858 10.8129L22.1301 9.87124C22.3905 9.61158 22.3929 9.18814 22.1151 8.94719C21.8314 8.70109 21.5315 8.47148 21.22 8.26133C20.7227 7.92533 20.1893 7.63466 19.636 7.39999C19.0693 7.15999 18.4787 6.97733 17.8827 6.85599C16.652 6.60399 15.3507 6.60399 14.124 6.85599C13.5253 6.97866 12.9347 7.16133 12.3693 7.40133C11.8107 7.63599 11.2773 7.92533 10.7813 8.26133C10.288 8.59333 9.82399 8.97733 9.39999 9.39999C8.97599 9.82266 8.59332 10.288 8.26265 10.78C7.92665 11.2773 7.63599 11.8107 7.40132 12.3667C7.16132 12.932 6.97865 13.5227 6.85732 14.12C6.81999 14.3 6.79999 14.484 6.77332 14.6667H3.63234C3.27598 14.6667 3.09751 15.0975 3.3495 15.3495L7.71714 19.7171C7.87335 19.8734 8.12662 19.8734 8.28283 19.7171L12.6505 15.3495ZM19.3495 16.6505C19.0975 16.9025 19.276 17.3333 19.6323 17.3333H22.532C22.5307 17.3373 22.532 17.3413 22.5307 17.344C22.4427 17.776 22.312 18.196 22.1413 18.5947C21.9773 18.9853 21.7707 19.3667 21.5293 19.7253C21.2907 20.0773 21.016 20.4107 20.712 20.7147C20.412 21.0147 20.0813 21.288 19.7267 21.528C19.3693 21.768 18.9893 21.9747 18.5947 22.1427C18.1907 22.3133 17.7707 22.444 17.344 22.5307C16.468 22.7107 15.5347 22.7107 14.6547 22.5307C14.2293 22.444 13.8093 22.3133 13.4053 22.1427C13.0093 21.9747 12.628 21.768 12.272 21.528C12.1026 21.4138 11.9378 21.2909 11.7786 21.1605C11.4942 20.9276 11.0749 20.9251 10.815 21.185L9.87139 22.1286C9.61104 22.3889 9.60959 22.813 9.88775 23.0542C10.172 23.3007 10.4707 23.53 10.78 23.7387C11.2773 24.0747 11.8107 24.3653 12.3667 24.6C12.932 24.84 13.5227 25.0227 14.12 25.144C14.7347 25.2693 15.3667 25.3333 16 25.3333C16.6333 25.3333 17.2653 25.2693 17.8773 25.144C18.476 25.0227 19.068 24.8387 19.6333 24.5987C20.1867 24.364 20.72 24.0747 21.2173 23.7387C21.7133 23.404 22.18 23.0187 22.5973 22.6C23.02 22.1773 23.404 21.712 23.7373 21.2173C24.076 20.7147 24.3667 20.1813 24.5973 19.6347C24.8347 19.0747 25.0173 18.484 25.1413 17.88C25.1773 17.7 25.1987 17.516 25.2253 17.3333H28.3676C28.724 17.3333 28.9025 16.9025 28.6505 16.6505L24.2828 12.2828C24.1266 12.1266 23.8734 12.1266 23.7171 12.2828L19.3495 16.6505Z" fill="black" fill-opacity="0.38"/>
</svg>
