<svg width="32" height="32" viewBox="0 0 32 32" fill="none" xmlns="http://www.w3.org/2000/svg">
<path d="M10.6667 26.6666C10.6667 27.403 11.2636 27.9999 12 27.9999C12.7364 27.9999 13.3333 27.403 13.3333 26.6666V23.9999H20C20.7364 23.9999 21.3333 23.403 21.3333 22.6666C21.3333 21.9302 20.7364 21.3333 20 21.3333H13.3333V18.6666H19.3333C23.0093 18.6666 26 15.6759 26 11.9999C26 8.32392 23.0093 5.33325 19.3333 5.33325H12C11.2627 5.33325 10.6667 5.93059 10.6667 6.66659V15.9999H7.99999C7.26361 15.9999 6.66666 16.5969 6.66666 17.3333C6.66666 18.0696 7.26361 18.6666 7.99999 18.6666H10.6667V21.3333H7.99999C7.26361 21.3333 6.66666 21.9302 6.66666 22.6666C6.66666 23.403 7.26361 23.9999 7.99999 23.9999H10.6667V26.6666ZM13.3333 7.99992H19.3333C21.5387 7.99992 23.3333 9.79458 23.3333 11.9999C23.3333 14.2053 21.5387 15.9999 19.3333 15.9999H13.3333V7.99992Z" fill="#FF5B5B"/>
</svg>
