<svg width="32" height="32" viewBox="0 0 32 32" fill="none" xmlns="http://www.w3.org/2000/svg">
<path d="M26.3354 12.5751C26.8701 11.5245 27.1719 10.0872 27.1719 8.82983C27.1719 4.5651 23.7022 1.09546 19.4375 1.09546C15.1728 1.09546 11.7031 4.5651 11.7031 8.82983C11.7031 9.50376 11.79 10.4069 11.9528 11.0306C11.1094 11.3696 10.315 11.781 9.57979 12.2614C8.91842 11.8643 8.17786 11.6571 7.40626 11.6571H5.68751C5.41131 11.6571 5.15183 11.7899 4.99033 12.014C4.82882 12.2381 4.78488 12.5262 4.87219 12.7882L5.83968 15.6906C4.93613 16.418 3.8756 16.8134 2.80585 16.8134L2.19272 16.8133C1.71846 16.8133 1.33334 17.198 1.33334 17.6726V22.8863C1.33334 23.1139 1.42358 23.3321 1.58428 23.4932L1.63453 23.5435C3.83435 25.7476 6.65265 27.3479 9.62121 28.0878L10.0011 29.9871C10.0814 30.3888 10.4341 30.678 10.8438 30.678H14.2813C14.7559 30.678 15.1406 30.2932 15.1406 29.8186V28.8952C18.4321 29.1035 20.4686 28.812 22.0156 28.3683V29.8186C22.0156 30.2932 22.4004 30.678 22.875 30.678H26.3125C26.6955 30.678 27.0322 30.4246 27.1383 30.0566C27.6469 28.2921 28.4161 26.5288 29.4897 24.666C30.2487 23.3491 30.6667 21.7811 30.6667 20.2509C30.6667 17.1313 28.9115 14.4229 26.3354 12.5751ZM19.4375 3.06338C22.7545 3.06338 25.1365 5.51282 25.1365 8.82983C25.1365 12.1469 22.7545 15.0946 19.4375 15.0946C16.1205 15.0946 13.5743 12.1469 13.5743 8.82983C13.5743 5.51282 16.1205 3.06338 19.4375 3.06338ZM27.7333 23.8077C26.7142 25.576 26.2176 26.9462 25.6758 28.6377H23.7344V27.1778C23.7344 26.5789 23.0618 25.5838 22.5006 25.7937C20.8679 26.4042 18.742 26.9163 14.2813 26.5338C13.7802 26.4906 13.4219 27.4654 13.4219 27.9692L13.3576 28.6377H11.484L11.1978 27.2067C11.1304 26.87 11.2026 26.3491 10.8667 26.278C10.8667 26.278 10.5329 26.2786 10.5296 26.278C7.77814 25.6912 5.62099 24.2737 3.55105 22.2752L3.53334 18.7659C5.12668 18.7015 6.19225 18.0139 7.43216 16.8134C7.66963 16.5835 8.01739 15.999 7.91289 15.6854L7.09118 13.6774H7.43216C8.1742 13.6774 8.72483 14.0015 9.05603 14.2733C9.35801 14.5211 9.84528 14.3861 10.1615 14.157C10.9144 13.6116 11.7499 13.2989 12.6524 12.9341C13.942 15.4145 16.4539 16.9592 19.4375 16.9592C21.8293 16.9592 23.7167 16.1591 25.1365 14.4483C27.4069 16.0902 28.4265 18.1836 28.4265 20.5422C28.4265 21.7759 28.3442 22.7478 27.7333 23.8077Z" fill="#86C339"/>
<path d="M8.66668 20.4113C9.47669 20.4113 10.1333 19.7546 10.1333 18.9446C10.1333 18.1346 9.47669 17.478 8.66668 17.478C7.85666 17.478 7.20001 18.1346 7.20001 18.9446C7.20001 19.7546 7.85666 20.4113 8.66668 20.4113Z" fill="#86C339"/>
<path d="M21.0943 8.67199C20.6356 8.42719 20.1063 8.32899 19.5944 8.234C19.211 8.16284 18.8144 8.08934 18.5902 7.96966C18.4758 7.90858 18.4758 7.89277 18.4758 7.78987C18.4758 7.72897 18.575 7.61783 18.7645 7.52307C19.2337 7.28851 19.8954 7.30771 20.2397 7.56592C20.6195 7.85072 21.158 7.77372 21.4428 7.39404C21.7276 7.01437 21.6507 6.47572 21.2709 6.19092C20.9883 5.97894 20.6548 5.82746 20.297 5.73734V5.52691C20.297 5.05231 19.9122 4.66753 19.4376 4.66753C18.963 4.66753 18.5782 5.05231 18.5782 5.52691V5.76312C18.378 5.81864 18.1825 5.89249 17.9959 5.98582C17.2086 6.37941 16.7571 7.037 16.7571 7.78993C16.7571 8.542 17.1112 9.12849 17.781 9.48599C18.2396 9.7308 18.769 9.829 19.2809 9.92399C19.6643 9.99514 20.0608 10.0686 20.285 10.1883C20.3994 10.2493 20.3994 10.2652 20.3994 10.3681C20.3994 10.427 20.2977 10.5403 20.1092 10.6346C19.6404 10.869 18.9793 10.8499 18.6355 10.5921C18.2558 10.3073 17.7172 10.3843 17.4324 10.7639C17.1476 11.1437 17.2246 11.6823 17.6043 11.9671C17.8869 12.179 18.2205 12.3304 18.5782 12.4205V12.6311C18.5782 13.1057 18.963 13.4905 19.4376 13.4905C19.9122 13.4905 20.297 13.1057 20.297 12.6311V12.3936C20.4966 12.3381 20.6918 12.2649 20.8779 12.1718C21.6661 11.7777 22.1181 11.1203 22.1181 10.368C22.1181 9.61599 21.7641 9.02949 21.0943 8.67199Z" fill="#86C339"/>
</svg>
