<svg width="32" height="32" viewBox="0 0 32 32" fill="none" xmlns="http://www.w3.org/2000/svg">
<g clip-path="url(#clip0)">
<path d="M28.64 6.23999C29.36 7.19999 30 8.31999 30.56 9.43999L16 20.16L9.91998 16.32V11.76L16 15.6C16 15.52 28.64 6.23999 28.64 6.23999ZM31.76 13.12L28.32 15.68V16C28.32 19.6 26.8 22.8 24.32 25.12L26.8 27.92C30 24.96 32.08 20.8 32.08 16.08C32 15.04 31.92 14.08 31.76 13.12Z" fill="#21A038"/>
<path d="M24.72 24.72C22.48 26.96 19.44 28.32 16 28.32H15.36L15.2 32C15.52 32 15.76 32.08 16.08 32.08C20.56 32.08 24.56 30.24 27.44 27.36L24.72 24.72Z" fill="url(#paint0_linear)"/>
<path d="M16 28.32C12.4 28.32 9.11997 26.72 6.87997 24.24L4.15997 26.72C7.03997 29.92 11.28 32 16 32V28.32Z" fill="url(#paint1_linear)"/>
<path d="M7.28 24.7201C5.04 22.4801 3.68 19.4401 3.68 16.0001V15.2801L0 15.1201V16.0001C0 20.4001 1.76 24.4001 4.64 27.2801L7.28 24.7201Z" fill="url(#paint2_linear)"/>
<path d="M3.68 15.9999C3.68 12.3999 5.28 9.11991 7.76 6.87991L5.28 4.15991C2 7.11991 0 11.2799 0 15.9999H3.68Z" fill="url(#paint3_linear)"/>
<path d="M7.11998 7.52C9.35998 5.2 12.48 3.76 16 3.76H16.64L16.88 0H16C11.44 0 7.35998 1.92 4.47998 4.96L7.11998 7.52Z" fill="url(#paint4_linear)"/>
<path d="M16 3.68C18.56 3.68 20.96 4.48 22.96 5.84L26.08 3.52C23.28 1.36 19.84 0 16 0V3.68Z" fill="url(#paint5_linear)"/>
</g>
<defs>
<linearGradient id="paint0_linear" x1="15.6043" y1="30.5313" x2="24.8872" y2="27.22" gradientUnits="userSpaceOnUse">
<stop offset="0.1226" stop-color="#A3CD39"/>
<stop offset="0.2846" stop-color="#86C339"/>
<stop offset="0.8693" stop-color="#21A038"/>
</linearGradient>
<linearGradient id="paint1_linear" x1="4.53437" y1="26.3936" x2="15.3372" y2="29.6507" gradientUnits="userSpaceOnUse">
<stop offset="0.1324" stop-color="#F2E913"/>
<stop offset="0.2977" stop-color="#EBE716"/>
<stop offset="0.5306" stop-color="#D9E01F"/>
<stop offset="0.8023" stop-color="#BBD62D"/>
<stop offset="0.9829" stop-color="#A3CD39"/>
</linearGradient>
<linearGradient id="paint2_linear" x1="4.80768" y1="26.4925" x2="2.582" y2="16.4496" gradientUnits="userSpaceOnUse">
<stop offset="0.1444" stop-color="#F2E913"/>
<stop offset="0.3037" stop-color="#E7E518"/>
<stop offset="0.5823" stop-color="#CADB26"/>
<stop offset="0.891" stop-color="#A3CD39"/>
</linearGradient>
<linearGradient id="paint3_linear" x1="2.05192" y1="16.9115" x2="5.2548" y2="5.40295" gradientUnits="userSpaceOnUse">
<stop offset="0.0698" stop-color="#A3CD39"/>
<stop offset="0.2599" stop-color="#81C55F"/>
<stop offset="0.9216" stop-color="#0FA8E0"/>
</linearGradient>
<linearGradient id="paint4_linear" x1="5.0095" y1="4.98728" x2="16.4095" y2="2.49016" gradientUnits="userSpaceOnUse">
<stop offset="0.0592" stop-color="#0FA8E0"/>
<stop offset="0.5385" stop-color="#0099F9"/>
<stop offset="0.9234" stop-color="#0291EB"/>
</linearGradient>
<linearGradient id="paint5_linear" x1="15.1023" y1="1.86728" x2="25.7423" y2="4.03872" gradientUnits="userSpaceOnUse">
<stop offset="0.0566" stop-color="#0291EB"/>
<stop offset="0.79" stop-color="#0C8ACB"/>
</linearGradient>
<clipPath id="clip0">
<rect width="32" height="32" fill="white"/>
</clipPath>
</defs>
</svg>
