<svg width="40" height="40" viewBox="0 0 40 40" fill="none" xmlns="http://www.w3.org/2000/svg">
<path d="M39.4716 18.7062L40 17.0469L38.2815 17.1012C37.4765 17.0716 36.7012 16.8 36.0494 16.321H36.2815C37.3284 16.316 38.2864 15.7185 38.7506 14.7802L39.5062 13.1654C38.9136 13.1704 38.321 13.1358 37.7333 13.0617C37.1704 12.9284 36.6667 12.6222 36.2864 12.1877C35.7728 11.6395 35.0617 11.3284 34.3111 11.3235C34.0198 11.3235 33.7284 11.3728 33.4469 11.4617C33.4864 11.3284 33.521 11.1951 33.5457 11.0568C33.6642 10.0938 33.3926 9.12099 32.7951 8.35556L31.4914 6.75062L30.6914 8.62716C30.563 8.89383 30.3704 9.12593 30.1235 9.29383C29.9852 8.62222 29.6593 8.00988 29.1753 7.52593C28.3654 6.6963 27.2543 6.2321 26.0938 6.24198C25.8914 6.24198 25.6889 6.25679 25.4914 6.28642L23.9309 6.59259C24.0642 6.06914 24.2765 5.57037 24.563 5.11111L25.4222 3.77284L23.2593 3.97531L22.5679 2.49383L21.2346 3.21975L20 2L18.7654 3.21975L17.4321 2.5284L16.7407 3.97531L14.5778 3.72839L15.437 5.0716C15.7235 5.53086 15.9358 6.02963 16.0691 6.55309L14.5877 6.26173H14.5383C14.3309 6.2321 14.1235 6.21728 13.916 6.21728C12.7556 6.20741 11.6444 6.67161 10.8346 7.50123C10.3457 7.99012 10.0099 8.61235 9.87654 9.29383C9.63951 9.13086 9.44691 8.90864 9.31852 8.64691L8.51358 6.75556L7.2 8.36543C6.61235 9.13086 6.35062 10.0988 6.4642 11.0568C6.48889 11.1951 6.52346 11.3284 6.56296 11.4617C6.28148 11.3728 5.99012 11.3235 5.69877 11.3235C4.94815 11.3284 4.23704 11.6395 3.72346 12.1877C3.34815 12.6173 2.84938 12.9235 2.29136 13.0617C1.69877 13.1506 1.0963 13.1852 0.493827 13.1654L1.22963 14.8049C1.69383 15.7432 2.65185 16.3407 3.69877 16.3457H3.93086C3.28889 16.8148 2.52346 17.0864 1.7284 17.121L0 17.0469L0.528395 18.7062C0.923457 20.0049 2.04444 20.958 3.39259 21.1309C3.25432 22.0049 2.70123 22.7605 1.91111 23.1556L0.587654 23.6938L1.29877 24.9333C1.88642 25.8469 2.89877 26.3901 3.98025 26.3802C4.26173 26.3802 4.54321 26.3506 4.81975 26.2914C4.88889 26.5926 4.97778 26.8938 5.07654 27.1852C5.32346 27.837 5.33827 28.5481 5.12593 29.2099L4.48395 30.558L5.92099 30.9383C6.24198 31.0222 6.57778 31.0617 6.90864 31.0617C7.14568 31.0617 7.37778 31.037 7.60988 30.9827C7.77778 30.9432 7.94568 30.8938 8.1037 30.8296C8.28642 31.1605 8.51852 31.4667 8.78025 31.7383C9.69877 32.6815 11.0025 33.1605 12.6568 33.1605H13.837L11.4025 34.1728L13.2494 35.0864C13.9951 35.4519 14.7556 35.7827 15.5309 36.0741L15.3086 36.716L15.9457 37.0074C17.0025 37.4222 18.1235 37.6543 19.2593 37.6938H20.7753C21.9062 37.6543 23.0222 37.4173 24.0741 37.0025L24.6914 36.716L24.4741 36.0741C25.2593 35.7728 26.0296 35.4321 26.7802 35.0518L28.5926 34.1728L26.163 33.1852H27.3481C29.0025 33.1852 30.3111 32.6914 31.2247 31.763C31.4914 31.4914 31.7185 31.1852 31.9012 30.8543C32.0593 30.9185 32.2272 30.9679 32.3951 31.0074C32.6272 31.0617 32.8593 31.0864 33.0963 31.0864C33.4272 31.0864 33.763 31.042 34.084 30.963L35.5259 30.5827L34.8988 29.2593C34.6617 28.5877 34.6716 27.8519 34.9235 27.1852C35.0272 26.8839 35.1111 26.5778 35.1802 26.2716C35.4568 26.3309 35.7432 26.3605 36.0247 26.3605C37.116 26.3704 38.1333 25.8074 38.7111 24.879L39.4123 23.6543L38.1086 23.121C37.3185 22.7259 36.7654 21.9704 36.6272 21.0963C37.9753 20.9185 39.0963 19.9704 39.4914 18.6667L39.4716 18.7062Z" fill="white"/>
<path d="M25.9359 23.9505H14.084V28.3949C14.084 30.2221 15.4025 31.3579 17.3531 31.3579C18.9828 31.3579 19.4124 31.4221 20.0149 32.0245C20.3951 31.6147 20.9334 31.3826 21.4964 31.3924V31.3233L21.8717 30.1677L21.2346 29.4714C20.9778 29.5505 20.7112 29.5801 20.4445 29.5653C20.0445 29.5603 19.6494 29.5208 19.2593 29.4418H19.1359C19.0815 29.4418 19.0815 29.4418 19.0667 29.4714L18.9927 29.5949L18.8593 29.8171L18.6025 29.7579L17.4618 29.4912L17.3038 29.748V29.7776L17.442 29.9307L17.3828 30.1282C17.2791 30.3702 17.1309 30.5875 16.9433 30.7752L16.6569 31.0813L16.3951 30.7554L16.2025 30.5134C15.9951 30.2418 15.9457 29.8863 16.0643 29.5653L15.7433 29.6986L15.6001 29.3826L15.5211 29.1603C15.3186 28.6912 15.4717 28.148 15.8815 27.8517L16.8001 27.3579L17.6741 27.5307C17.6741 27.4468 17.7285 27.1455 17.7532 27.0714H17.7038L17.2099 27.2591L16.7161 26.9233C16.6173 26.8245 16.6124 26.6616 16.7161 26.5579L17.1852 25.8468L15.9951 24.3653L17.7778 25.0665L17.9013 24.9184L18.1482 24.6221L18.4297 24.8887C18.5038 24.9628 18.5531 25.0517 18.5778 25.1554C19.0717 25.3529 19.9852 25.9307 20.0593 26.869L19.7778 26.9826C19.8124 27.0319 19.8569 27.0714 19.9112 27.0961L21.2149 27.2245L21.3334 27.19C21.5556 27.106 21.7927 27.0616 22.0297 27.0566C22.2667 27.0566 22.4988 27.111 22.7112 27.2147C22.805 27.1801 22.9087 27.1603 23.0075 27.1554H23.0717C23.768 27.1554 24.1186 27.6789 24.3951 28.0937L24.5383 28.3011C24.7803 28.6468 25.1013 29.1505 25.1161 29.1702L25.2593 29.3924L25.0815 29.5998C24.9186 29.8171 24.6618 29.9406 24.3902 29.9406C24.3112 29.9455 24.2322 29.9455 24.1531 29.9406C24.084 29.9258 24.0149 29.906 23.9457 29.8764C23.9457 29.9455 23.9457 30.0295 23.9062 30.0986L23.7038 31.264C25.047 30.9924 25.9951 29.7875 25.9408 28.4147L25.9359 23.9505ZM14.0692 23.59H23.2988C22.9235 23.195 22.7951 22.6271 22.963 22.1085C22.8396 22.0493 22.721 21.9703 22.6173 21.8814C22.2568 22.148 21.1359 22.948 20.8692 23.1505L20.8099 23.19L17.1852 22.548H17.1112C16.9926 22.553 16.8741 22.553 16.7556 22.548C16.721 22.711 16.5778 22.8246 16.4149 22.8246H16.3556C16.163 22.79 16.0297 22.6073 16.0593 22.4147V22.3357C15.5902 21.9999 15.368 21.4172 15.4914 20.8542V20.79L15.5457 20.7505C15.5457 20.7505 15.6149 20.7011 15.7087 20.6468L15.447 20.6073C15.3482 20.5875 15.284 20.4987 15.2988 20.3999C15.3136 20.3011 15.4025 20.2369 15.5013 20.2517H15.5062L16.1334 20.3505L16.1926 18.1431L17.126 17.1554L17.7087 18.3801L17.0964 20.5036L17.6494 20.5925C17.7482 20.6122 17.8124 20.7011 17.7976 20.7999C17.7828 20.8888 17.7087 20.948 17.6198 20.948H17.5902L17.1408 20.874V20.9085C17.1902 20.9974 17.2643 21.0666 17.3581 21.111L20.1186 21.1554L20.8247 20.4592C20.2865 20.2715 19.9013 19.7974 19.8371 19.2295C19.4914 19.0962 19.2099 18.8394 19.0519 18.5085C18.9186 18.1974 18.8939 17.8468 18.9877 17.5209C18.5531 17.348 18.1581 17.0863 17.8371 16.7505H13.7383C13.9359 17.2345 14.0494 17.748 14.0692 18.2666V23.59Z" fill="#FCE527"/>
<path d="M17.8569 25.8914C17.7976 25.8914 17.7433 25.9358 17.7383 25.9951V26C17.7334 26.0642 17.7828 26.1235 17.847 26.1284H17.8519C17.921 26.1284 17.9704 26.0741 17.9704 26.0099C17.9704 25.9407 17.921 25.8914 17.8569 25.8914Z" fill="#222220"/>
<path d="M17.8519 25.8865C17.8568 25.8865 17.8568 25.8914 17.8568 25.8914C17.8618 25.8914 17.8618 25.8865 17.8667 25.8865H17.8519ZM25.9209 33.9852L25.2395 33.7235L25.4271 33.0173L25.6345 32.2469C24.7012 32.726 23.7234 33.1111 22.716 33.3976C22.2222 33.5358 21.8666 33.6 21.8666 33.6V34.0988C21.2592 34.1976 20.6469 34.2519 20.0296 34.2568H19.9753C19.358 34.2519 18.7456 34.1976 18.1382 34.0988V33.605C18.1382 33.605 17.7777 33.5358 17.2839 33.3976C16.2765 33.1111 15.2987 32.726 14.3654 32.2469L14.5679 33.0173L14.7604 33.7235L14.074 33.9852L13.3333 34.2667C14.3506 34.7951 15.4123 35.2346 16.5086 35.5803L16.2469 36.2914C17.437 36.7457 18.7111 36.9679 19.9851 36.9383H20.0148C21.2888 36.9679 22.5629 36.7457 23.753 36.2914L23.4962 35.5803C24.5876 35.2346 25.6493 34.7951 26.6666 34.2667L25.9209 33.9852ZM14.158 34.3111L15.2641 33.9408L14.9333 32.8544C15.6592 33.2148 16.4098 33.5161 17.1851 33.7531L16.6419 35.2346C15.7876 35.0074 14.953 34.6963 14.158 34.3111ZM20.0296 36.5877L20.0049 36.5679C18.9185 36.563 17.837 36.4148 16.7901 36.1284L17.4567 34.321C18.2864 34.5284 19.1407 34.642 19.9999 34.6469H20.0543C20.9135 34.6371 21.7678 34.5284 22.5975 34.321L23.2641 36.1284C22.2123 36.4247 21.1209 36.5778 20.0296 36.5877ZM23.3975 35.2642V35.2494L22.8543 33.7679C23.6296 33.5309 24.3802 33.2297 25.1061 32.8692L24.7753 33.9556L25.8962 34.3309C25.0962 34.721 24.2567 35.0371 23.3975 35.2642ZM20 5.79757C21.116 5.76794 22.2123 6.10374 23.1209 6.75066C23.2642 6.01979 23.5358 5.31856 23.9259 4.68152L22.8049 4.80992L22.2222 3.56053L21.0913 4.14325L20 3.06177L18.9086 4.14325L17.7777 3.56053L17.195 4.80992L16.074 4.68152C16.4642 5.31856 16.7358 6.01979 16.879 6.75066C17.7876 6.10374 18.8839 5.76794 20 5.79757ZM17.1456 5.24448L17.4568 5.27905L17.5901 4.99757L17.9802 4.15806L18.7061 4.53337L18.9876 4.67658L19.2148 4.46917L20 3.67411L20.7851 4.46917L21.0123 4.6914L21.2938 4.54819L22.0148 4.17288L22.4098 5.01238L22.5432 5.29387L22.8543 5.2593L23.1506 5.22473C23.0321 5.49634 22.9284 5.77782 22.8444 6.06424C21.0617 5.15066 18.9432 5.15066 17.1605 6.06424C17.0765 5.77782 16.9728 5.49634 16.8543 5.22473L17.1456 5.24448ZM34.647 15.9901L34.5136 15.8272C33.5951 14.6568 32.721 13.5457 31.1606 13.037C31.2248 12.9827 31.289 12.9333 31.3581 12.8889C32.0988 12.4691 32.6223 11.7482 32.7902 10.9136C32.8741 10.158 32.6618 9.40248 32.1976 8.80001L31.7038 8.18273L31.3927 8.91853C31.3927 8.96297 30.8445 10.1432 29.7383 10.1432H29.4124C29.4717 9.36791 29.1902 8.60248 28.642 8.04939C27.9754 7.36791 27.0569 6.98766 26.1038 6.9926C25.926 6.9926 25.7482 7.00742 25.5754 7.03211L24.8198 7.18026L25.289 7.79754C25.6544 8.29137 25.9852 9.14569 25.5951 9.60495C25.4075 9.76791 25.1951 9.89631 24.963 9.98519C24.4692 10.2173 23.7581 10.5482 23.7581 11.3778C23.7581 11.9161 24.1778 12.479 24.9334 12.958C27.1606 14.3704 28.5383 15.8272 29.1359 17.4667C30.0593 19.9654 28.8544 21.3877 27.684 22.1383L27.1606 22.4741L27.6198 22.8938C28.0297 23.2445 28.5334 23.4617 29.0717 23.5161H29.521C29.9803 23.5161 30.4346 23.4519 30.8741 23.3185C30.7655 23.5111 30.6322 23.6938 30.489 23.8617C29.8223 24.637 28.8346 25.0617 27.8124 25.0074H27.3729L27.3383 25.4469C27.3334 26.0642 27.605 26.6469 28.0741 27.0469C28.1976 27.1556 28.3359 27.2445 28.484 27.3136C27.7531 28.0247 27.3383 28.9975 27.3235 30.0198C27.3235 30.5778 27.1951 31.1309 26.9531 31.6346L26.4593 32.3753H27.3383C28.7902 32.3753 29.9013 31.9753 30.6717 31.1803C31.0717 30.7605 31.368 30.2519 31.5408 29.6988C31.8272 29.9407 32.163 30.1087 32.5285 30.1926C32.7013 30.2321 32.8791 30.2519 33.0569 30.2519C33.3235 30.2519 33.5902 30.2173 33.847 30.158L34.4099 30.0099L34.163 29.4864C33.8519 28.6519 33.8519 27.7284 34.163 26.8938C34.3457 26.3506 34.4741 25.7877 34.5433 25.2148C34.9877 25.442 35.4815 25.5556 35.9803 25.5506C36.8001 25.5605 37.5655 25.1556 38.0099 24.4691L38.2815 23.9753L37.7877 23.7679C36.1334 23.0815 35.768 21.2346 35.6939 20.237C35.8569 20.2716 36.0198 20.2914 36.1877 20.2963L36.326 20.3901C38.1235 20.3901 38.726 18.558 38.7507 18.479L38.9531 17.8321H38.2766C36.8544 17.7827 35.526 17.1111 34.647 15.9901ZM36.3309 19.8914H36.2618C35.9013 19.8963 35.5457 19.7975 35.2396 19.6099C35.2396 19.6099 34.9778 23.1803 37.6396 24.2864V24.3012C37.289 24.8346 36.6865 25.1506 36.0494 25.1407C35.3285 25.1852 34.6322 24.879 34.1778 24.321C34.1927 25.1605 34.0544 26 33.7729 26.7901C33.4124 27.7432 33.4124 28.8 33.7729 29.7531C33.5507 29.8074 33.3285 29.837 33.1013 29.837C32.963 29.837 32.8198 29.8222 32.6865 29.7877C32.0297 29.6296 31.5062 29.1457 31.2939 28.5086C31.2939 28.5086 31.3976 31.9358 27.4025 31.9358H27.3729C27.6741 31.363 27.8322 30.7259 27.8272 30.079C28.0001 27.5457 29.7186 27.1852 29.7186 27.1852C29.2445 27.1259 28.7951 26.958 28.4001 26.6914C28.0396 26.3901 27.8322 25.9457 27.8223 25.4766C28.9778 25.5259 30.0939 25.0469 30.8494 24.1679C31.3038 23.6494 31.605 23.0173 31.7334 22.3407C31.0964 22.8198 30.3112 23.0617 29.5161 23.0272H29.1112C28.6815 22.9827 28.2717 22.8148 27.9408 22.5333C29.4618 21.5457 30.5285 19.8568 29.5852 17.2938C28.8248 15.2395 27.0025 13.7037 25.1704 12.5482C24.563 12.1728 24.1976 11.7482 24.1976 11.3827C24.1976 10.5235 25.4173 10.4988 25.9211 9.90124C26.4988 9.22964 26.1383 8.14322 25.6346 7.49137C25.7778 7.46668 25.926 7.4568 26.0692 7.4568C26.8939 7.44692 27.689 7.77779 28.2618 8.37038C28.8445 8.92347 29.0667 9.75803 28.8445 10.5284L29.1112 10.5827C29.2741 10.6124 29.4371 10.6272 29.605 10.6321H29.7136C31.1606 10.6321 31.8124 9.11606 31.8124 9.11606C31.8124 9.11606 33.3531 11.0124 31.0865 12.4938C30.6964 12.7457 30.5235 12.9877 30.5927 13.2346L30.6272 13.3975L30.7902 13.4272C32.4346 13.8716 33.2593 15.0074 34.2815 16.2963C35.2494 17.5259 36.7112 18.2667 38.2766 18.321H38.3062C38.3062 18.321 37.8124 19.8914 36.3309 19.8914Z" fill="#222220"/>
<path d="M33.1604 13.2593C33.7135 13.5753 34.1925 14.005 34.5679 14.5185C34.8493 14.9531 35.2493 15.2988 35.7234 15.5062C35.9012 15.5655 36.0938 15.5951 36.2814 15.5951C37.037 15.5951 37.7283 15.1655 38.074 14.4938L38.3604 13.8519L37.6641 13.8124C36.9135 13.6741 36.237 13.2889 35.7382 12.7111C35.3679 12.3111 34.8493 12.079 34.3012 12.0741C33.8765 12.079 33.4666 12.2074 33.1111 12.4346L32.4691 12.884L33.1604 13.2593ZM34.316 12.5531L34.3012 12.558C34.7209 12.558 35.116 12.7408 35.3975 13.0519C35.9753 13.7136 36.7654 14.1531 37.6345 14.2963C37.3679 14.7951 36.8493 15.1062 36.2814 15.1111C36.1432 15.1111 36.0049 15.0864 35.8716 15.042C35.0716 14.7704 34.7901 13.5605 33.4024 12.8297C33.674 12.6519 33.9901 12.558 34.316 12.5531ZM33.4864 19.6247L33.4766 19.6148C33.0716 16.3555 30.7062 14 28.0741 12.5728C27.8321 12.4395 27.605 12.3309 27.3877 12.2271C28.4741 12.4494 29.605 12.1827 30.479 11.5012C30.479 11.5012 28.9531 12.6222 25.8321 11.6049C26.6963 12.1679 28.3753 12.958 29.9111 14.242C33.7432 17.6099 31.0025 20.8988 31.0025 20.8988C32.1482 19.8123 32.5482 18.1531 32.0346 16.6617C32.8445 18.0099 33.2346 19.5704 33.1506 21.1407C33.042 23.7284 31.605 25.9901 30.1235 27.7926C29.679 28.3605 29.3729 29.0271 29.2445 29.7383C29.4963 29.0321 29.8766 28.3802 30.3704 27.8173C31.9753 25.9358 33.3334 23.9852 33.5259 21.1753C33.6939 21.6691 34.3753 23.1062 35.4618 23.6444C35.4618 23.6444 34.0988 22.8247 33.4864 19.6247ZM13.042 31.6692C12.805 31.1655 12.6766 30.6124 12.6716 30.0544C12.6568 29.0322 12.2371 28.0593 11.5062 27.3482C11.6543 27.2791 11.7926 27.1902 11.9161 27.0816C12.3852 26.6816 12.6568 26.0988 12.6519 25.4816L12.6222 25.042H12.1778C11.1605 25.0914 10.1729 24.6717 9.5062 23.8964C9.36299 23.7285 9.23459 23.5458 9.12101 23.3532C9.56052 23.4865 10.0148 23.5507 10.4741 23.5507H10.9235C11.4618 23.4964 11.9704 23.2791 12.3803 22.9285L12.8395 22.5087L12.3161 22.1729C11.1408 21.4223 9.94076 20.0001 10.8642 17.5013C11.4618 15.8766 12.8395 14.4099 15.0864 12.9976C15.842 12.5038 16.2568 11.9556 16.2568 11.4174C16.2568 10.5877 15.5605 10.2569 15.0519 10.0248C14.8198 9.93587 14.6074 9.80748 14.4198 9.64451C14.0247 9.18526 14.3556 8.31118 14.7259 7.83711L15.2198 7.21982L14.4593 7.07168C14.2864 7.04205 14.1087 7.03217 13.9309 7.03217C12.9679 7.00254 12.0395 7.37291 11.358 8.04945C10.8 8.5976 10.5087 9.36797 10.563 10.1482H10.2667C9.15558 10.1482 8.63212 8.97291 8.61237 8.92353L8.30126 8.18772L7.80743 8.80501C7.34817 9.40748 7.13583 10.163 7.21978 10.9186C7.38768 11.7532 7.9062 12.4741 8.64694 12.8939C8.71607 12.9383 8.78521 12.9877 8.84447 13.042C7.28397 13.5359 6.4099 14.6618 5.49138 15.8322L5.35805 16.0001C4.47904 17.1211 3.1457 17.7927 1.72348 17.842H1.04694L1.25434 18.489C1.25434 18.568 1.87657 20.4001 3.67903 20.4001H3.76792C3.93583 20.3951 4.09879 20.3754 4.26175 20.3408C4.18768 21.3285 3.82224 23.1853 2.16299 23.8717L1.66916 24.0791L1.94076 24.5729C2.38521 25.2593 3.15064 25.6643 3.97039 25.6544C4.46916 25.6593 4.95805 25.5457 5.40249 25.3186C5.47163 25.8914 5.60002 26.4544 5.78274 26.9976C6.09385 27.8322 6.09385 28.7556 5.78274 29.5902L5.53583 30.1137L6.09879 30.2618C6.35558 30.3211 6.62224 30.3556 6.88891 30.3556C7.06669 30.3556 7.24447 30.3359 7.41731 30.2964C7.78274 30.2124 8.11854 30.0445 8.40496 29.8025C8.5778 30.3556 8.8741 30.8643 9.2741 31.284C10.0494 32.0791 11.1605 32.4741 12.6074 32.4791H13.4864L13.042 31.6692ZM12.6173 31.9457C8.62224 31.9457 8.72101 28.5186 8.72101 28.5186C8.50866 29.1556 7.98521 29.6396 7.32842 29.7976C7.19508 29.8322 7.05187 29.847 6.9136 29.847C6.68644 29.847 6.46422 29.8174 6.24694 29.763C6.60743 28.8099 6.60743 27.7532 6.24694 26.8001C5.96545 26.0099 5.83212 25.1704 5.84694 24.3309C5.39262 24.889 4.69632 25.1951 3.97533 25.1507H3.95064C3.30866 25.1606 2.7062 24.8396 2.35558 24.3062C5.01731 23.2001 4.75558 19.6297 4.75558 19.6297C4.44941 19.8174 4.09385 19.9161 3.73336 19.9112H3.67903C2.19755 19.9112 1.70373 18.3408 1.70373 18.3408H1.73336C3.29879 18.2914 4.76545 17.5507 5.73336 16.3211C6.75064 15.0322 7.58027 13.8964 9.22471 13.4519L9.38768 13.4223L9.42224 13.2593C9.46669 13.0075 9.29385 12.7655 8.92842 12.5186C6.66175 11.0371 8.20249 9.14081 8.20249 9.14081C8.20249 9.14081 8.84447 10.6569 10.3013 10.6569H10.3704C10.5383 10.6519 10.7013 10.6371 10.8642 10.6075L11.1309 10.5532C10.9037 9.78279 11.1309 8.94822 11.7136 8.39513C12.2864 7.80254 13.0815 7.47168 13.9062 7.48155C14.0494 7.48155 14.1976 7.49143 14.3408 7.51612C13.8469 8.17291 13.4815 9.25933 14.0593 9.926C14.5531 10.5038 15.7778 10.5285 15.7778 11.4075C15.7778 11.7729 15.4371 12.1976 14.8297 12.5778C12.9926 13.7334 11.1704 15.2692 10.4148 17.3235C9.47163 19.8865 10.5383 21.5902 12.0593 22.563C11.7284 22.8396 11.3185 23.0124 10.8889 23.0569H10.479C9.68397 23.0914 8.89879 22.8495 8.26175 22.3704C8.39015 23.047 8.69138 23.6791 9.14076 24.1976C9.89632 25.0717 11.0173 25.5556 12.1729 25.5062C12.163 25.9754 11.9556 26.4198 11.5951 26.7211C11.2 26.9877 10.7506 27.1556 10.2766 27.2149C10.2766 27.2149 12 27.5655 12.1877 30.1087C12.1827 30.7556 12.3408 31.3927 12.642 31.9655L12.6173 31.9457Z" fill="#222220"/>
<path d="M3.71358 15.5901H3.71851C3.90617 15.5901 4.09876 15.5605 4.27654 15.5013C4.75061 15.2938 5.15061 14.9482 5.43209 14.5136C5.80246 14 6.28148 13.5704 6.83456 13.2543L7.52592 12.884L6.88395 12.4346C6.52839 12.2074 6.11851 12.079 5.69876 12.0741C5.15061 12.079 4.63209 12.3111 4.26172 12.7161C3.7679 13.2889 3.08641 13.679 2.34074 13.8173L1.64444 13.8519L1.92592 14.4938C2.2716 15.1655 2.95802 15.5852 3.71358 15.5901ZM4.60246 13.0519C4.87901 12.7408 5.27407 12.558 5.69382 12.558C6.01481 12.563 6.33086 12.6618 6.60246 12.8346C5.20493 13.5803 4.91358 14.7753 4.13333 15.0469C4.00493 15.0914 3.86666 15.1161 3.72839 15.1161C3.15555 15.1161 2.63209 14.8 2.36543 14.2963C3.23456 14.1531 4.02469 13.7136 4.60246 13.0519ZM6.8593 21.1605C6.77535 19.5901 7.16053 18.0296 7.97535 16.6815C7.46177 18.1728 7.86177 19.8321 9.00745 20.9185C9.00745 20.9185 6.26177 17.6296 10.0988 14.2617C11.6346 12.9778 13.3087 12.1877 14.1729 11.6247C11.0519 12.642 9.52597 11.521 9.52597 11.521C10.4 12.2025 11.526 12.4691 12.6124 12.2469C12.3951 12.3506 12.1679 12.4642 11.926 12.5926C9.29387 14.0247 6.91362 16.3803 6.5235 19.6395V19.6148C5.91115 22.8148 4.54819 23.6346 4.54819 23.6346C5.62967 23.1012 6.31609 21.6593 6.47905 21.1654C6.66177 23.9803 8.03461 25.9309 9.63955 27.8074C10.1284 28.3704 10.5136 29.0222 10.7655 29.7284C10.6321 29.0222 10.326 28.3556 9.87658 27.7926C8.3951 25.9901 6.963 23.7284 6.8593 21.1605ZM19.0963 15.2148C19.2691 15.0469 19.5111 14.9679 19.7531 14.9975V15.9308C19.7482 16.1629 19.6889 16.3852 19.5753 16.5876H20.5086C20.3951 16.3852 20.3358 16.1629 20.3309 15.9308V14.9975C20.5679 14.9679 20.8099 15.0469 20.9827 15.2148V14.5679H19.0963V15.2148ZM18.7062 10.7358H18.6963C18.8395 10.8593 19.0074 10.958 19.1902 11.0173L19.3087 11.0716V10.4593L18.2124 10C18.2667 10.3062 18.4445 10.5728 18.7062 10.7358ZM21.3087 10.7309L21.3037 10.7358C21.5655 10.5728 21.7432 10.3062 21.7976 10L20.7013 10.4593V11.0667L20.8148 11.0123C20.9976 10.9531 21.1655 10.8543 21.3087 10.7309Z" fill="#222220"/>
<path d="M23.2741 8.25675C23.2741 7.33329 21.7185 6.50366 20.0049 6.50366C18.2913 6.50366 16.7358 7.33329 16.7358 8.25675L16.7703 8.48391L17.4568 12.4345L16.7703 12.8345L14.9778 13.8518C14.9778 13.8518 14.5778 14.0592 14.3901 14.1827C13.7136 14.6765 13.5703 15.3382 13.9605 15.6247C14.0592 14.953 14.6469 14.4592 15.3284 14.479C15.8963 14.4938 16.4247 14.7802 16.7457 15.2493C16.8444 15.3679 16.9333 15.4963 17.0123 15.6247C17.116 15.7926 17.2197 15.9407 17.3234 16.0839H12.7506C13.1358 16.7456 13.358 17.4913 13.4074 18.2567V28.4148C13.4074 30.8839 15.2987 32.0444 17.358 32.0444C18.9383 32.0444 19.1506 31.9703 20.0197 32.8395C20.8889 31.9703 21.1012 32.0444 22.6815 32.0444C24.7259 32.0444 26.6321 30.874 26.6321 28.4148V18.2666C26.6815 17.5012 26.9037 16.7555 27.2889 16.0938H22.6666C22.7703 15.9506 22.8741 15.8024 22.9778 15.6345C23.0617 15.5061 23.1506 15.3777 23.2444 15.2592C23.5703 14.7901 24.0987 14.5037 24.6666 14.4888C25.3481 14.4691 25.9358 14.9629 26.0345 15.6345C26.4296 15.353 26.2864 14.6469 25.6049 14.1926C25.4222 14.0642 25.0222 13.8617 25.0222 13.8617L23.2444 12.8148L22.558 12.4148L23.2444 8.46416L23.2741 8.25675ZM17.3975 8.71107L19.8074 9.52588V13.3086L18.0345 12.3703L17.3975 8.71107ZM13.7382 16.7506H17.8913C18.2123 17.0864 18.6074 17.353 19.042 17.5209C18.9481 17.8469 18.9728 18.1975 19.1062 18.5086C19.2642 18.8395 19.5457 19.0963 19.8913 19.2296C19.9555 19.7975 20.3407 20.2716 20.879 20.4592C20.5827 20.7605 20.2913 21.0419 20.1728 21.1555L17.4123 21.1111C17.3185 21.0666 17.2444 20.9975 17.195 20.9086V20.874L17.6444 20.9481H17.6741C17.7629 20.9481 17.837 20.8888 17.8518 20.8C17.8666 20.7012 17.8024 20.6123 17.7037 20.5926L17.1506 20.5037L17.7629 18.3802L17.1802 17.1555L16.2469 18.1432L16.1876 20.3506L15.5605 20.2518C15.4617 20.2321 15.3728 20.2963 15.3531 20.395V20.4C15.3382 20.4987 15.4024 20.5876 15.5012 20.6074L15.7629 20.6469C15.6691 20.7012 15.6049 20.7407 15.6 20.7506L15.5457 20.7901V20.8543C15.4222 21.4172 15.6494 22 16.1136 22.3358V22.4148C16.0839 22.6074 16.2173 22.7901 16.4099 22.8246H16.4691C16.6321 22.8246 16.7753 22.7111 16.8099 22.5481C16.9284 22.553 17.042 22.553 17.1605 22.5481H17.2345L20.8543 23.2049L20.9136 23.1654C21.2 22.9629 22.3012 22.1777 22.6617 21.8963C22.7654 21.9851 22.8839 22.0642 23.0074 22.1234C22.8395 22.6419 22.9679 23.2098 23.3432 23.6049H14.0691V18.2666C14.0494 17.7481 13.9358 17.2345 13.7382 16.7506ZM22.3506 21.6345C21.9753 21.9111 21.0518 22.5827 20.716 22.8197L17.4321 22.2469V22.158C17.4864 21.9358 17.516 21.7086 17.521 21.4814L20.2864 21.5259L20.3407 21.4716C20.3852 21.4271 21.2592 20.5827 21.7037 20.0938C21.8222 20.2419 21.9605 20.3654 22.1185 20.4642C22.0395 20.8691 22.1234 21.2888 22.3506 21.6345ZM16.8642 21.0419V21.0567C16.9383 21.195 17.0469 21.3135 17.1802 21.3926C17.1753 21.595 17.1555 21.7926 17.121 21.9901C17.121 22.0345 17.121 22.079 17.0864 22.1234V22.1926C16.8592 22.1926 16.637 22.158 16.4197 22.0888C16.0247 21.8765 15.8024 21.4419 15.8666 20.9975C16.0444 20.874 16.2469 20.795 16.4592 20.7654C16.642 20.7605 16.8049 20.8691 16.8642 21.0419ZM16.5234 20.3851L16.5778 18.2963L17.0716 17.8024L17.3728 18.4296L16.7852 20.4642L16.5234 20.3851ZM22.3259 31.3876H21.8518L22.2222 30.1777C22.2815 30.0098 21.9753 29.7925 21.8469 29.6C22.1481 29.7827 22.4592 29.9456 22.7802 30.0938C22.7802 30.1333 22.3259 31.3876 22.3259 31.3876ZM23.595 30.0345L23.5555 30L23.2987 31.3333C23.1358 31.3333 22.9629 31.3679 22.8049 31.3777L23.0765 30.0938C23.1555 29.7135 22.1333 29.6 21.6296 28.8444C21.2987 29.1209 20.8741 29.2493 20.4494 29.2049C20.0741 29.2 19.7037 29.1604 19.3382 29.0864C19.2741 29.0814 19.2099 29.0814 19.1457 29.0864C18.9926 29.0765 18.8444 29.1555 18.7654 29.2888L18.6913 29.4123L17.2839 29.0716L16.9481 29.6543C16.8938 29.7333 16.9037 29.8419 16.9728 29.9111L17.0666 30.0148C16.9728 30.1975 16.8543 30.3654 16.7111 30.5086L16.5037 30.2518C16.3457 29.995 16.3605 29.6642 16.5383 29.4222L17.0913 28.4888L18.2716 28.6666L18.0889 28.2469C17.842 27.6938 18.2173 26.9876 18.2568 26.5827C18.2568 26.7061 18.1284 26.7308 18 26.7308H17.6592C17.6345 26.7259 17.6049 26.7259 17.5802 26.7308L17.2592 26.9234L17.0074 26.6913C16.9679 26.6172 16.9827 26.5284 17.042 26.474L17.6247 25.8172L16.9333 25.0123L17.921 25.5061L18.2173 25.1506C18.2963 25.2296 18.2617 25.437 18.2617 25.437C18.9778 25.6148 19.4765 26.2666 19.4568 27.0074V27.1506C19.5555 27.3086 19.7136 27.4172 19.8913 27.4617L21.2296 27.595C21.4963 27.5111 21.7679 27.4567 22.0444 27.4222C22.2815 27.4222 22.5185 27.4963 22.716 27.6246C22.8099 27.5605 22.9234 27.5209 23.037 27.516H23.0815C23.679 27.516 23.9308 28.0592 24.2518 28.5037C24.4938 28.8444 24.8197 29.358 24.8197 29.358C24.7259 29.4963 24.5728 29.5802 24.4049 29.5802C24.3457 29.5851 24.2913 29.5851 24.2321 29.5802C23.5901 29.4617 23.4963 28.1382 23.1308 28.0345H23.0716C23.0024 28.0345 22.9383 28.074 22.9037 28.1382C23.0716 28.5876 22.9728 28.7703 23.1555 29.1259C23.2889 29.3382 23.4568 29.5308 23.6494 29.6938C23.6494 29.6938 23.6247 29.8913 23.595 30.0345ZM16.4 28.7407H16.3901L16.4494 28.8938C16.4099 29.0271 15.9555 29.2197 15.9555 29.2197L15.8568 29.0024C15.7284 28.6913 15.8222 28.3358 16.0938 28.1333L16.8395 27.679L17.6345 27.8469C17.6296 28.0049 17.679 28.158 17.7728 28.2864L16.9382 28.1284L16.4444 28.474C16.3654 28.5432 16.3506 28.6518 16.4 28.7407ZM25.9506 28.4197C26.0049 29.7926 25.0518 30.9975 23.7037 31.2642L23.9308 30.0691C23.9308 30 23.9555 29.916 23.9654 29.8469C24.0345 29.8765 24.1037 29.8963 24.1728 29.9111C24.2518 29.916 24.3308 29.916 24.4099 29.9111C24.6815 29.9111 24.9383 29.7876 25.1012 29.5703L25.279 29.3629L25.1308 29.1605C25.1308 29.1605 24.8 28.637 24.5531 28.2913L24.4148 28.0839C24.1382 27.6691 23.7876 27.1456 23.0913 27.1456H23.0271C22.9284 27.1506 22.8247 27.1703 22.7308 27.2049C22.5185 27.1012 22.2864 27.0469 22.0494 27.0469C21.8123 27.0518 21.5753 27.0963 21.3531 27.1802L21.2345 27.2148L19.9308 27.0864C19.8765 27.0617 19.8321 27.0222 19.7975 26.9728L20.079 26.8592C20 25.916 19.0913 25.3382 18.5975 25.1456C18.5728 25.0419 18.5234 24.953 18.4494 24.879L18.1679 24.6123L17.921 24.9086L17.7975 25.0567L15.9703 24.3061L17.1605 25.7876L16.6913 26.4987C16.5926 26.5975 16.5876 26.7605 16.6913 26.8642L17.1852 27.2L17.679 27.0123H17.7284C17.7284 27.0864 17.6741 27.3876 17.6494 27.4716L16.7901 27.3234L15.8716 27.8172C15.4469 28.1234 15.2987 28.6864 15.521 29.1605L15.6247 29.3827L15.7679 29.6987L16.0889 29.5654C15.9703 29.8864 16.0197 30.2419 16.2271 30.5135L16.4197 30.7605L16.6765 31.0864L16.9629 30.7802C17.1506 30.5926 17.2987 30.3753 17.4024 30.1333L17.4617 29.9358L17.3234 29.7827V29.753L17.4815 29.4963L18.6222 29.7629L18.879 29.8222L19.0173 29.595L19.0913 29.4716C19.0913 29.4469 19.0913 29.4419 19.1605 29.4419H19.2839C19.6741 29.5209 20.0691 29.5605 20.4642 29.5654C20.7308 29.5802 20.9975 29.5506 21.2543 29.4716L21.8864 30.1926L21.5111 31.3481V31.4172C20.9481 31.4074 20.4099 31.6395 20.0296 32.0493C19.4222 31.4469 18.9926 31.3827 17.3679 31.3827C15.4173 31.3827 14.0987 30.2419 14.0987 28.4197V23.9753H25.9506V28.4197ZM26.2716 16.7506C26.0691 17.2296 25.9605 17.7432 25.9407 18.2666V21.595C25.5111 21.5012 25.1901 21.1358 25.1605 20.6963V20.5432H25.0123C24.7555 20.5234 24.5185 20.4049 24.3407 20.2222C24.1234 19.9703 24.0049 19.6543 24 19.3234C23.7876 19.6691 23.8074 20.1135 24.0543 20.4395C24.2469 20.6814 24.5284 20.8444 24.8345 20.8839C24.9234 21.4567 25.3827 21.9012 25.9555 21.9753V23.6049H23.8815C23.3383 23.3284 23.1111 22.6814 23.3531 22.1234L23.4321 21.9456L23.2494 21.8765C22.6568 21.6691 22.3308 21.0321 22.5185 20.4296L22.558 20.2814L22.4197 20.2172C21.9012 19.916 21.6148 19.3284 21.6987 18.7358C21.4271 19.0123 21.358 19.4321 21.5308 19.7777C21.4321 19.8913 21.3037 20.0246 21.1605 20.1728C20.642 20.0642 20.2666 19.6148 20.2469 19.0864V18.9629L20.1333 18.9185C19.8321 18.8296 19.5852 18.6222 19.442 18.3456C19.3481 18.1185 19.3284 17.8617 19.3926 17.6246C19.4913 17.6444 19.5901 17.6592 19.6889 17.6691C19.7876 17.674 19.8913 17.674 19.9901 17.6691C20.7901 17.6691 21.5506 17.3234 22.0839 16.7308L26.2716 16.7506ZM23.0716 13.3827L23.8815 13.8765L24.0839 13.995C23.6642 14.1086 23.2839 14.3358 22.9827 14.6518L22.9481 14.6814C22.879 14.7555 22.8148 14.8296 22.7506 14.9086L22.7111 14.958C22.6469 15.037 22.5876 15.1209 22.5333 15.2098L22.5037 15.2543C22.4345 15.353 22.3703 15.4617 22.3062 15.5703C21.8568 16.4642 20.9827 17.0617 19.9901 17.1605C18.9975 17.0617 18.1234 16.4642 17.6741 15.5703C17.6099 15.4617 17.5457 15.358 17.4815 15.2543L17.442 15.2L17.2839 14.9432L17.2395 14.8888C17.1753 14.8098 17.1111 14.7358 17.0469 14.6666L17.0123 14.6321C16.7111 14.316 16.3308 14.0888 15.9111 13.9753L16.1185 13.8567L16.9333 13.3629L17.7679 12.8691L19.995 14.079L22.2222 12.9086L23.0716 13.3827ZM21.9753 12.395L20.2024 13.3284V9.53082L22.6074 8.71601L21.9753 12.395ZM20 9.13082L17.3629 8.07403C17.5852 7.5407 18.6222 7.08638 20 7.08638C21.3778 7.08638 22.4148 7.5407 22.637 8.07403L20 9.13082Z" fill="#222220"/>
</svg>
